<svg xmlns="http://www.w3.org/2000/svg" xmlns:xlink="http://www.w3.org/1999/xlink" viewBox="0,0,256,256" width="100px" height="100px"><g fill="#000000" fill-rule="nonzero" stroke="none" stroke-width="1" stroke-linecap="butt" stroke-linejoin="miter" stroke-miterlimit="10" stroke-dasharray="" stroke-dashoffset="0" font-family="none" font-weight="none" font-size="none" text-anchor="none" style="mix-blend-mode: normal"><path d="M0,256v-256h256v256z" id="shape"></path></g><g fill="#ffffff" fill-rule="nonzero" stroke="none" stroke-width="1" stroke-linecap="butt" stroke-linejoin="miter" stroke-miterlimit="10" stroke-dasharray="" stroke-dashoffset="0" font-family="none" font-weight="none" font-size="none" text-anchor="none" style="mix-blend-mode: normal"><g transform="scale(4,4)"><path d="M31.99805,1.01172c-0.25975,0 -0.51758,0.09375 -0.70508,0.28125l-30,30c-0.391,0.391 -0.391,1.02306 0,1.41406l30,30c0.187,0.188 0.44103,0.29297 0.70703,0.29297c0.266,0 0.52003,-0.10497 0.70703,-0.29297l29.99805,-30c0.391,-0.391 0.391,-1.02306 0,-1.41406l-30,-30c-0.1875,-0.1875 -0.44728,-0.28125 -0.70703,-0.28125zM32.17773,3.59375l28.4082,28.40625l-24.50391,24.50391c0.27652,-1.06274 0.43359,-2.16372 0.43359,-3.29102c0,-3.13596 -1.11217,-6.09727 -3.13477,-8.45117l12.05469,-12.05469c0.391,-0.391 0.391,-1.02306 0,-1.41406l-12.72852,-12.72852c-2.078,-2.078 -3.22266,-4.83934 -3.22266,-7.77734c0,-2.67301 0.95762,-5.19429 2.69336,-7.19336zM27.91992,7.49219c-0.27722,1.06401 -0.43555,2.16616 -0.43555,3.29492c0,3.1364 1.11358,6.09711 3.13672,8.45117l-12.05469,12.05469c-0.391,0.391 -0.391,1.02306 0,1.41406l2.82813,2.82813c0.391,0.391 1.02306,0.391 1.41406,0c0.391,-0.39 0.391,-1.02306 0,-1.41406l-2.12109,-2.12109l11.3125,-11.31445l11.3125,11.31445l-11.3125,11.3125l-0.70703,-0.70703c-0.391,-0.391 -1.02306,-0.391 -1.41406,0c-0.391,0.39 -0.391,1.02306 0,1.41406l1.41406,1.41602c2.078,2.078 3.22266,4.83934 3.22266,7.77734c0,2.6735 -0.95702,5.19607 -2.69336,7.19531l-28.4082,-28.4082zM34.12109,9.08008c-0.256,0 -0.51203,0.09797 -0.70703,0.29297l-1.41406,1.41406c-0.39,0.39 -0.39,1.02406 0,1.41406c0.39,0.39 1.02406,0.39 1.41406,0l1.41406,-1.41406c0.391,-0.391 0.391,-1.02406 0,-1.41406c-0.195,-0.195 -0.45103,-0.29297 -0.70703,-0.29297zM37.65625,12.61523c-0.256,0 -0.51203,0.09797 -0.70703,0.29297l-1.41406,1.41406c-0.39,0.39 -0.39,1.02406 0,1.41406c0.39,0.39 1.02406,0.39 1.41406,0l1.41406,-1.41406c0.39,-0.39 0.39,-1.02406 0,-1.41406c-0.195,-0.195 -0.45103,-0.29297 -0.70703,-0.29297zM41.19141,16.15234c-0.256,0 -0.51203,0.09602 -0.70703,0.29102l-1.41406,1.41406c-0.39,0.39 -0.39,1.02406 0,1.41406c0.39,0.39 1.02406,0.39 1.41406,0l1.41406,-1.41406c0.391,-0.39 0.391,-1.02406 0,-1.41406c-0.195,-0.195 -0.45103,-0.29102 -0.70703,-0.29102zM44.72852,19.68555c-0.256,0 -0.51203,0.09797 -0.70703,0.29297l-1.41406,1.41406c-0.39,0.39 -0.39,1.02406 0,1.41406c0.39,0.39 1.02406,0.39 1.41406,0l1.41406,-1.41406c0.39,-0.39 0.39,-1.02306 0,-1.41406c-0.195,-0.195 -0.45103,-0.29297 -0.70703,-0.29297zM48.26367,23.22266c-0.256,0 -0.51203,0.09797 -0.70703,0.29297l-1.41406,1.41406c-0.39,0.39 -0.39,1.02406 0,1.41406c0.39,0.39 1.02406,0.39 1.41406,0l1.41406,-1.41406c0.39,-0.39 0.39,-1.02406 0,-1.41406c-0.195,-0.195 -0.45103,-0.29297 -0.70703,-0.29297zM51.79883,26.75781c-0.256,0 -0.51203,0.09797 -0.70703,0.29297l-1.41406,1.41406c-0.39,0.39 -0.39,1.02406 0,1.41406c0.39,0.39 1.02406,0.39 1.41406,0l1.41406,-1.41406c0.39,-0.39 0.39,-1.02306 0,-1.41406c-0.195,-0.195 -0.45103,-0.29297 -0.70703,-0.29297zM55.33594,30.29297c-0.256,0 -0.51203,0.09797 -0.70703,0.29297l-1.41602,1.41406c-0.39,0.39 -0.39,1.02406 0,1.41406c0.39,0.39 1.02406,0.39 1.41406,0l1.41602,-1.41406c0.39,-0.39 0.39,-1.02406 0,-1.41406c-0.195,-0.195 -0.45103,-0.29297 -0.70703,-0.29297zM24.92969,36.65625c-0.25575,0 -0.51153,0.09747 -0.70703,0.29297c-0.391,0.391 -0.391,1.02406 0,1.41406l2.82813,2.82813c0.195,0.195 0.45103,0.29297 0.70703,0.29297c0.256,0 0.51203,-0.09697 0.70703,-0.29297c0.391,-0.391 0.391,-1.02406 0,-1.41406l-2.82812,-2.82812c-0.1955,-0.1955 -0.45128,-0.29297 -0.70703,-0.29297z"></path></g></g></svg>